<svg xmlns="http://www.w3.org/2000/svg" enable-background="new 0 0 64 64" viewBox="0 0 64 64"><path fill="#3c3d46" d="M44.9,4.04c0.25,3.53,1.23,7.07,4.01,9.69l4.04-1.43l-1.03-9.33L44.9,4.04z"/><polygon fill="#f6c3ac" points="48.82 10.73 51.52 10.32 52.85 14.95 49.88 15.27"/><path fill="#3c3d46" d="M45.61,5.57C44.13,5.05,43.49,1.91,45.35,1c1.13-0.74,5.71-1.78,6.82-0.1c2.46-0.9,3.37,2.5,2.74,4.24
					c0.59,0.49,0.81,1.47,0.77,2.79c0.08,0.72,0.25,1.39,0.9,1.86c1.32,0.77,1.72,1.76,1.59,2.87l-5.86-0.2l-0.04-0.61
					c-0.42-0.31-0.66-0.83-0.75-1.54l2.02-2.82c0.92-0.95,1.01-1.75,0.48-2.64c-0.38-0.41-0.94-0.33-1.16,0.55
					c-0.15-1.06-0.56-1.57-1.15-1.72c-2.56,0.53-4.68,0.77-5.94,0.4L45.61,5.57z"/><path fill="#f6c3ac" d="M53.54,7.51c-0.2,1.2-0.95,2.1-2.02,2.82l-2.7,0.4c-2.3-0.69-3.03-2.64-3.21-5.15l0.16-1.47
					c1.26,0.36,3.39,0.13,5.94-0.41c0.59,0.15,1,0.66,1.15,1.72c0.22-0.89,0.78-0.96,1.16-0.55C54.55,5.75,54.45,6.55,53.54,7.51z"/><path fill="#293b4e" d="M47.64,6.28c0,0.35-0.23,0.63-0.52,0.63S46.6,6.62,46.6,6.28c0-0.35,0.23-0.63,0.52-0.63
				S47.64,5.93,47.64,6.28z"/><ellipse cx="50.19" cy="5.77" fill="#293b4e" rx=".52" ry=".63"/><path fill="#e5b19c" d="M47.64,8.54c0.66,1.39,2.09,1.46,2.55-0.27C49.41,8.61,48.56,8.7,47.64,8.54z"/><polygon fill="#f6c3ac" points="56.23 60.57 56.53 62.52 54.08 62.37 53.71 60.6"/><path fill="#3c3d46" d="M50.34,63.72c0,0.08,0,0.16,0.01,0.24L56.53,64c0.06-0.08,0.1-0.16,0.13-0.24L50.34,63.72z"/><path fill="#d08230" d="M56.55,61.63c-0.82,0.49-1.87,0.35-2.78-0.04c-0.4,0.22-0.89,0.44-1.4,0.47
							c-1.11,0.11-1.99,0.87-2.03,1.66l6.31,0.04C56.95,63.02,56.46,62.24,56.55,61.63z"/><polygon fill="#f6c3ac" points="45.94 60.57 45.73 62.51 43.22 62.36 43.41 60.6"/><path fill="#3c3d46" d="M39.71,63.72c0,0.08,0,0.16,0.01,0.24L45.89,64c0.06-0.08,0.1-0.16,0.13-0.24L39.71,63.72z"/><path fill="#d08230" d="M45.91,61.63c-0.82,0.49-1.87,0.35-2.78-0.04c-0.4,0.22-0.89,0.44-1.4,0.47
							c-1.11,0.11-1.99,0.87-2.03,1.66l6.31,0.04C46.31,63.02,45.82,62.24,45.91,61.63z"/><path fill="#3582a8" d="M47.25,28.26c-1.56,6.02-1.43,12.68-2.09,15.61c-0.4,1.49-0.6,2.64-0.56,4.17
			c-0.7,2.68-0.97,7.72-1.46,12.88h2.92c1.1-5.1,2.94-9.83,2.66-13.75l3.77-18.55L47.25,28.26z"/><path fill="#41acd8" d="M59.53,28.47c0.15,5.12-3.32,10.78-5.91,17.69c0.9,2.49,1.55,8.83,2.89,14.77h-2.92
			c-1.96-5.22-4.27-10.99-4.74-13.03c-0.23-1.06-0.32-2.2-0.24-3.43c0.42-5.69,1.85-12.42,2.81-15.82L59.53,28.47z"/><path fill="#a72a45" d="M44.28,15.27c-1.62,2.49-3.12,5.38-4.73,8.35c-0.23,0.43-0.65,0.73-1.13,0.83
			c-1.76,0.35-4.77,1.24-7.66,2.07l0.63,1.73c3.02-0.23,6.09-0.61,8.04-0.91c0.69-0.11,1.33-0.44,1.8-0.95
			c1.51-1.65,2.82-3.35,3.93-5.11L44.28,15.27z"/><path fill="#e5e5e5" d="M52.02,12.05c-0.55,2.04-2.12,2.24-2.76,0.57l-0.79,16.1c2.32,0.38,5.12,0.38,7.35-0.25L52.02,12.05z"/><path fill="#df4666" d="M49.26 12.62c.49 8.2.39 15.15-.39 20.19-.58 4.33-1.95 5.83-3.37 4.49-.26-.24-.4-.59-.38-.95.12-2.09.73-5.29 1.14-8.77.16-1.33.03-2.68-.39-3.96-.97-2.9-1.62-5.71-1.59-8.35C45.74 13.82 48.51 13.88 49.26 12.62zM52.02 12.05c.04 2.73.26 5.2.65 7.3.31 1.6.3 3.14.33 4.58.01.7.13 1.39.33 2.07.9 3.01 1.28 7.02 2.34 9.08 2.25.23 4.21.13 5.54-.72-.29-2.39-1.51-6.93-2.74-11.51-.25-1.17-.36-2.32-.21-3.43-1.84-3.07-2.19-6.23-.63-7.13C56.31 11.87 53.6 12.99 52.02 12.05z"/><path fill="#f6c3ac" d="M58.75,30.1l1.37,0.73c0.31,1-0.11,2.52-1.08,3.19c-1.1,0.68-2.28,0.25-1.94-1.08
			c0.17-0.42,0.49-0.91,0.7-1.24c0.16-0.29-0.02-0.45-0.25-0.3c-0.23,0.15-0.23,0.18-0.35,0.32c-0.37,0.19-0.38-0.3-0.24-0.59
			C57.13,30.75,57.81,30.26,58.75,30.1z"/><path fill="#a72a45" d="M62.85,23.53c-0.45,1.81-1.39,4.35-2.4,7.01c-0.06,0.17-0.13,0.34-0.19,0.51l-1.67-1
			c0.29-1.02,0.68-2.26,0.92-3.27c0.29-1.26,0.56-2.41,0.85-3.21c0.12-0.33,0.05-0.69-0.16-0.98c-0.72-0.98-1.37-2.03-1.95-3.16
			c-1.84-3.07-2.2-6.24-0.63-7.13c2.11,0.28,3.69,4.42,5.18,9.31C62.98,22.23,63.01,22.9,62.85,23.53z"/><path fill="#f6c3ac" d="M30.81 26.7l.53 1.38c-.46 1.16-1.52 1.65-2.59 1.46-1.17-.27-1.78-1.35-.68-2 .38-.17.75-.3 1.11-.38.3-.08.28-.31.03-.36-.25-.05-.27-.04-.44-.02-.37-.12-.06-.45.23-.55C29.37 26.11 30.09 26.19 30.81 26.7zM9.23 25.5l-.82.79c-.36 1.14-.04 2.59.38 4.32l1.37 3.07 2.59.48 1.94-3.76.46-2.4c0 0-.38-1.54-.38-1.64s-1.98-1.3-1.98-1.3L9.23 25.5z"/><path fill="#3c3d46" d="M8.23,26.25c-2.28-2.21,4.81-4.27,6.25-1.83c2.65,0.41,2.25,11.15-0.8,11.06l-0.83-2.93l-0.02-1.46
					c0.65-0.49,1.25-1.28,1.59-2.14c0.45-0.54,0.63-1.3,0.35-1.82c-0.14-0.22-0.46-0.02-0.7,0.21c-0.17-0.75-0.52-1.11-1.05-1.11
					c-1.37,0.05-2.76,1.36-4.46,0.05c-0.56,2.39,0.51,4.77,2.47,5.1v1.58l-1.61,0.4C8.63,29.9,6.91,28.61,8.23,26.25z"/><ellipse cx="12.19" cy="27.58" fill="#3c3d46" rx=".39" ry=".45"/><ellipse cx="9.81" cy="27.67" fill="#3c3d46" rx=".39" ry=".45"/><path fill="#e5b19c" d="M11.93,29.34c-0.25,1-1.63,1.19-1.9,0C10.61,29.47,11.27,29.49,11.93,29.34z"/><polygon fill="#f6c3ac" points="10.37 32.46 13.66 32.39 13.66 32.99 13.23 33.6 11.36 33.88 10.03 33.07"/><path fill="#f6c3ac" d="M17.42,53.32h-3.39c0.02,0.56,0.06,1.08,0.13,1.52c-0.01,0.48,0.03,1.06,0.1,1.67
					c0.1,1.52,0.14,3.75,0.26,5.59c-0.82,0.16-1.41,0.26-2.07,0.46v0.62h4.25l0.12-0.7l-0.02-0.5c0.07-1.82,0.36-4.02,0.32-5.29
					c-0.07-0.82-0.06-0.88,0.03-1.43C17.22,54.69,17.32,54.02,17.42,53.32z"/><path fill="#3c3d46" d="M11.41,63.75c0,0.07,0,0.14,0.01,0.22L16.9,64c0.05-0.07,0.09-0.14,0.11-0.22L11.41,63.75z"/><path fill="#d1395d" d="M16.8,61.91c-0.73,0.44-1.49,0.3-2.29-0.04c-0.36,0.19-0.85,0.39-1.3,0.41
									c-0.99,0.1-1.77,0.78-1.8,1.47l5.61,0.03C17.27,63.13,16.72,62.45,16.8,61.91z"/><path fill="#f6c3ac" d="M10.51,53.32H7.12c0.02,0.56,0.06,1.08,0.13,1.52c-0.01,0.48,0.03,1.06,0.1,1.67
					c0.1,1.52,0.14,3.75,0.26,5.59c-0.82,0.16-1.41,0.26-2.07,0.46v0.62h4.25l0.12-0.7l-0.02-0.5c0.07-1.82,0.36-4.02,0.32-5.29
					c-0.07-0.82-0.06-0.88,0.03-1.43C10.31,54.69,10.41,54.02,10.51,53.32z"/><path fill="#3c3d46" d="M4.49,63.75c0,0.07,0,0.14,0.01,0.22L9.99,64c0.05-0.07,0.09-0.14,0.11-0.22L4.49,63.75z"/><path fill="#d1395d" d="M9.89,61.91c-0.73,0.44-1.49,0.3-2.29-0.04c-0.36,0.19-0.85,0.39-1.3,0.41
									c-0.99,0.1-1.77,0.78-1.8,1.47l5.61,0.03C10.36,63.13,9.81,62.45,9.89,61.91z"/><path fill="#f6c3ac" d="M6.1,35.17c-0.28,1.28-0.57,2.75-0.71,4.02c-0.01,0.13-0.06,0.24-0.14,0.34c-0.56,0.69-1.52,2.22-2.5,3.54
				C2.37,43,2.01,43.02,1.65,43.09c-0.33,0.1-0.41,0.39-0.09,0.39c0.15,0.01,0.34,0.02,0.42,0.09c-0.23,0.42-0.9,0.49-0.93,0.95
				c0,0.46,0.45,0.99,1.32,0.58c0.52-0.27,0.86-0.75,1.19-1.35c1.1-1.17,2.33-2.26,3.05-3.05c0.29-0.31,0.5-0.68,0.62-1.09
				c0.31-1.11,0.54-2.3,0.69-3.56L6.1,35.17z"/><path fill="#d08230" d="M7.91,36.04c-1.02,0.04-1.76-0.34-2.33-0.95c0.68-1.04,1.33-1.84,1.92-2.21c0.04,1.01,0.17,1.82,0.38,2.93
				C7.89,35.89,7.91,35.97,7.91,36.04z"/><path fill="#445b69" d="M7.7,42.81C7,46.62,5.61,50.19,5.36,52.83c0.91,2.22,13.33,2.26,13.83,0c-0.12-2.5-1.5-6.21-2.89-10.34
				L7.7,42.81z"/><path fill="#f6c3ac" d="M17.9,32.63l3.19-0.32c0.89-0.6,3.24-1.43,5.41-2.44c-0.05-0.47-0.01-0.91,0.17-1.32
				c0.15-0.37,0.52-0.4,0.42,0c-0.04,0.12-0.05,0.3-0.04,0.48c0.85-0.51,1.61-1.05,2.15-0.78c0.88,0.56,0.86,1.82-0.37,2.4
				c-0.46,0.2-1.23,0.33-2.05,0.44c-2.08,1.34-4.07,2.58-5.48,3.25c-1.45,0.36-3.12,0.61-4.92,0.78L17.9,32.63z"/><path fill="#d08230" d="M17.9,32.63c-0.29,1.4-0.96,2.23-1.81,2.9c0-0.05,0-0.1,0.01-0.15c0.06-1.03,0.06-1.99-0.07-2.83
				C16.58,32.53,17.21,32.55,17.9,32.63z"/><path fill="#e6ac6c" d="M10.37,32.46c-1,0.01-1.94,0.16-2.87,0.43c0.04,1.02,0.17,1.83,0.38,2.93c0.29,1.65-0.16,4.28-0.18,6.98
				c2.01,0.64,7.18,0.6,8.61-0.32c0.28-2.78-0.31-5.59-0.21-7.1c0.06-1.03,0.06-1.99-0.07-2.83c-0.74-0.13-1.53-0.21-2.37-0.16
				C13.15,33.87,10.88,33.85,10.37,32.46z"/></svg>