<svg xmlns="http://www.w3.org/2000/svg" xmlns:xlink="http://www.w3.org/1999/xlink" width="56" height="77" viewBox="0 0 56 77">
  <defs>
    <clipPath id="clip-path">
      <rect id="Rectangle_284" data-name="Rectangle 284" width="56" height="77" transform="translate(195.769 210.703)" fill="#fff" stroke="#707070" stroke-width="1"/>
    </clipPath>
  </defs>
  <g id="Mask_Group_26" data-name="Mask Group 26" transform="translate(-195.769 -210.703)" clip-path="url(#clip-path)">
    <g id="kid-sitting-under-the-apple-tree" transform="translate(197.784 211.079)">
      <path id="Path_1125" data-name="Path 1125" d="M60.611,54.586a12.253,12.253,0,0,1-5.255,10.063H78.731a8.52,8.52,0,0,1-3.039-8.595A8.763,8.763,0,0,0,71.8,60.766a16.362,16.362,0,0,0-11.2-6.779C60.6,54.184,60.611,54.385,60.611,54.586Z" transform="translate(-26.659 -1.149)" fill="#61bec5"/>
      <path id="Path_1137" data-name="Path 1137" d="M84.633,63.17C83.013,72.663,49.868,67,51.488,57.511S61.843,41.6,70.994,43.157,86.255,53.692,84.633,63.17Z" transform="translate(-37.419 -31.474)" fill="#6b1f1f"/>
      <circle id="Ellipse_341" data-name="Ellipse 341" cx="6.716" cy="6.716" r="6.716" transform="translate(21.444 7.363)" fill="#6b1f1f"/>
      <circle id="Ellipse_342" data-name="Ellipse 342" cx="6.716" cy="6.716" r="6.716" transform="translate(27.671 0)" fill="#6b1f1f"/>
      <circle id="Ellipse_343" data-name="Ellipse 343" cx="6.716" cy="6.716" r="6.716" transform="translate(32.799 2.291)" fill="#6b1f1f"/>
      <circle id="Ellipse_344" data-name="Ellipse 344" cx="6.716" cy="6.716" r="6.716" transform="translate(36.485 10.998)" fill="#6b1f1f"/>
      <circle id="Ellipse_345" data-name="Ellipse 345" cx="6.716" cy="6.716" r="6.716" transform="translate(28.342 12.54)" fill="#6b1f1f"/>
      <circle id="Ellipse_346" data-name="Ellipse 346" cx="3.128" cy="3.128" r="3.128" transform="translate(41.111 29.901)" fill="#b26c50"/>
      <path id="Path_1138" data-name="Path 1138" d="M15.018,0h0A15.018,15.018,0,0,1,30.036,15.018V38.86H0V15.018A15.018,15.018,0,0,1,15.018,0Z" transform="matrix(0.986, 0.168, -0.168, 0.986, 17.882, 11.323)" fill="#b26c50"/>
      <rect id="Rectangle_286" data-name="Rectangle 286" width="9.146" height="4.032" rx="0.539" transform="translate(5.307 64.141) rotate(44.03)" fill="#71aabf"/>
      <rect id="Rectangle_287" data-name="Rectangle 287" width="30.039" height="10.051" transform="matrix(0.986, 0.168, -0.168, 0.986, 12.183, 44.693)" fill="#3f3f3f"/>
      <rect id="Rectangle_288" data-name="Rectangle 288" width="3.656" height="10.051" transform="matrix(0.986, 0.168, -0.168, 0.986, 25.073, 46.824)" fill="#438faa"/>
      <rect id="Rectangle_289" data-name="Rectangle 289" width="3.656" height="10.051" transform="matrix(0.986, 0.168, -0.168, 0.986, 16.295, 45.258)" fill="#438faa"/>
      <path id="Path_1139" data-name="Path 1139" d="M0,0H30.036V14.5A3.838,3.838,0,0,1,26.2,18.342H3.838A3.838,3.838,0,0,1,0,14.5V0Z" transform="matrix(0.986, 0.168, -0.168, 0.986, 11.339, 49.647)" fill="#438faa"/>
      <path id="Path_1140" data-name="Path 1140" d="M51.858,54.163c-.418.853-.762,1.987-.147,2.669a1.558,1.558,0,0,0,2.085-.047,6.5,6.5,0,0,0,1.379-1.938,13.93,13.93,0,0,1,5.675-5.376,9.76,9.76,0,0,1,4.909-1.4,5.975,5.975,0,0,1,4.062,1.938,13.709,13.709,0,0,0,4.366,2.571.143.143,0,0,0,.157-.234,4.11,4.11,0,0,1-1.021-2.209.2.2,0,0,1,.36-.14A32.241,32.241,0,0,0,79.405,56c1.533,1.15,3.565,2.7,5.142,3.768a7.577,7.577,0,0,0-.736-5.678A17.721,17.721,0,0,0,80.193,49.7c-2.641-2.517-5.537-4.895-8.964-5.956a13.889,13.889,0,0,0-10.642,1.12,15.614,15.614,0,0,0-7.136,8.595" transform="translate(-37.567 -30.825)" fill="#6b1f1f"/>
      <path id="Path_1141" data-name="Path 1141" d="M56.523,50.5c.818.14,2.1-.991,2.756-.056s-.671,3.078-3.2,2.646-3.438-2.99-2.3-3.644S55.534,50.329,56.523,50.5Z" transform="translate(-32.302 -14.047)" fill="#934b3e"/>
      <ellipse id="Ellipse_347" data-name="Ellipse 347" cx="5.853" cy="5.065" rx="5.853" ry="5.065" transform="translate(14.423 33.846) rotate(-80.256)" fill="#fff"/>
      <ellipse id="Ellipse_348" data-name="Ellipse 348" cx="3.782" cy="3.275" rx="3.782" ry="3.275" transform="matrix(0.168, -0.986, 0.986, 0.168, 16.947, 32.913)" fill="#182844"/>
      <ellipse id="Ellipse_349" data-name="Ellipse 349" cx="0.603" cy="0.856" rx="0.603" ry="0.856" transform="matrix(0.863, -0.506, 0.506, 0.863, 22.197, 27.032)" fill="#fff"/>
      <ellipse id="Ellipse_350" data-name="Ellipse 350" cx="5.827" cy="5.042" rx="5.827" ry="5.042" transform="matrix(0.168, -0.986, 0.986, 0.168, 25.216, 36.4)" fill="#fff"/>
      <ellipse id="Ellipse_351" data-name="Ellipse 351" cx="3.782" cy="3.275" rx="3.782" ry="3.275" transform="matrix(0.168, -0.986, 0.986, 0.168, 25.802, 34.423)" fill="#182844"/>
      <ellipse id="Ellipse_352" data-name="Ellipse 352" cx="0.603" cy="0.856" rx="0.603" ry="0.856" transform="matrix(0.863, -0.506, 0.506, 0.863, 31.053, 28.545)" fill="#fff"/>
      <path id="Path_1142" data-name="Path 1142" d="M66.026,47.212a5.825,5.825,0,0,1,1.554-.157,7.174,7.174,0,0,1,1.358.164,7.622,7.622,0,0,1,2.337.935A7.831,7.831,0,0,1,73.19,49.8a7.478,7.478,0,0,1,.771,1.129,5.97,5.97,0,0,1,.577,1.449l-.117.192-1.094-.589-1.08-.622c-.72-.416-1.431-.848-2.143-1.272s-1.417-.872-2.118-1.318l-1.05-.676L65.9,47.4Zm-14.49,1.4a5.932,5.932,0,0,1,.989-1.211,7.416,7.416,0,0,1,1.078-.844,7.76,7.76,0,0,1,4.846-1.169,7.244,7.244,0,0,1,1.344.252,5.986,5.986,0,0,1,1.433.615l.054.22-1.2.348-1.2.325c-.8.215-1.61.411-2.417.617s-1.618.386-2.429.563l-1.218.264-1.225.234Z" transform="translate(-37.13 -24.808)" fill="#934b3e"/>
      <rect id="Rectangle_290" data-name="Rectangle 290" width="9.146" height="4.032" rx="0.539" transform="translate(16.085 64.362) rotate(63.64)" fill="#71aabf"/>
      <path id="Path_1143" data-name="Path 1143" d="M1.566,0H3.392A1.568,1.568,0,0,1,4.96,1.568V5.6a2.48,2.48,0,0,1-2.48,2.48h0A2.48,2.48,0,0,1,0,5.6V1.568A1.568,1.568,0,0,1,1.568,0Z" transform="translate(34.916 68.321) rotate(-27.08)" fill="#b26c50"/>
      <path id="Path_1144" data-name="Path 1144" d="M.215,0H1.786A.234.234,0,0,1,2.02.234v2.8a1.01,1.01,0,0,1-1.01,1.01h0A1.01,1.01,0,0,1,0,3.039V.234A.234.234,0,0,1,.234,0Z" transform="matrix(0.986, 0.168, -0.168, 0.986, 35.628, 68.528)" fill="#b26c50"/>
      <path id="Path_1145" data-name="Path 1145" d="M1.566,0H3.392A1.568,1.568,0,0,1,4.96,1.568V5.6a2.48,2.48,0,0,1-2.48,2.48h0A2.48,2.48,0,0,1,0,5.6V1.568A1.568,1.568,0,0,1,1.568,0Z" transform="matrix(-0.668, 0.744, -0.744, -0.668, 10.907, 44.691)" fill="#b26c50"/>
      <circle id="Ellipse_353" data-name="Ellipse 353" cx="5.381" cy="5.381" r="5.381" transform="translate(0 33.68)" fill="#e46150"/>
      <path id="Path_1146" data-name="Path 1146" d="M51.435,48.407h1.122v1.122a2.312,2.312,0,0,1-2.312,2.312H49.123V50.718a2.312,2.312,0,0,1,2.312-2.312Z" transform="translate(-43.743 -16.444)" fill="#63cc22"/>
      <path id="Path_1147" data-name="Path 1147" d="M.215,0H1.786A.234.234,0,0,1,2.02.234v2.8a1.01,1.01,0,0,1-1.01,1.01h0A1.01,1.01,0,0,1,0,3.039V.234A.234.234,0,0,1,.215,0Z" transform="translate(10.16 44.795) rotate(168.71)" fill="#b26c50"/>
    </g>
  </g>
</svg>
