<svg xmlns="http://www.w3.org/2000/svg" width="25.427" height="20.986" viewBox="0 0 25.427 20.986">
  <g id="Icon_feather-camera" data-name="Icon feather-camera" transform="translate(0.5 0.5)">
    <path id="Path_864" data-name="Path 864" d="M25.927,22.265a2.221,2.221,0,0,1-2.221,2.221H3.721A2.221,2.221,0,0,1,1.5,22.265V10.052A2.221,2.221,0,0,1,3.721,7.831H8.162L10.383,4.5h6.662l2.221,3.331h4.441a2.221,2.221,0,0,1,2.221,2.221Z" transform="translate(-1.5 -4.5)" fill="none" stroke="#c3c3c3" stroke-linecap="round" stroke-linejoin="round" stroke-width="1"/>
    <path id="Path_865" data-name="Path 865" d="M20.883,17.941A4.441,4.441,0,1,1,16.441,13.5,4.441,4.441,0,0,1,20.883,17.941Z" transform="translate(-4.228 -6.838)" fill="none" stroke="#c3c3c3" stroke-linecap="round" stroke-linejoin="round" stroke-width="1"/>
  </g>
</svg>
