<?xml version="1.0" encoding="UTF-8"?><svg xmlns="http://www.w3.org/2000/svg" xmlns:xlink="http://www.w3.org/1999/xlink" width="375pt" zoomAndPan="magnify" viewBox="0 0 375 374.999991" height="374.999991pt" preserveAspectRatio="xMidYMid meet" version="1.2"><defs><g/></defs><g xml:id="surface1" id="surface1"><rect x="0" width="375" y="0" height="374.999991" style="fill:rgb(100%,100%,100%);fill-opacity:1;stroke:none;"/><rect x="0" width="375" y="0" height="374.999991" style="fill:rgb(100%,100%,100%);fill-opacity:1;stroke:none;"/><rect x="0" width="375" y="0" height="374.999991" style="fill:rgb(45.098877%,37.249756%,94.898987%);fill-opacity:1;stroke:none;"/><g style="fill:rgb(100%,100%,100%);fill-opacity:1;"><g transform="translate(18.260359, 214.235232)"><path style="stroke:none;" d="M 5.78125 -51.96875 C 5.78125 -55.601562 6.398438 -58.722656 7.640625 -61.328125 C 8.890625 -63.929688 10.582031 -66.070312 12.71875 -67.75 C 14.863281 -69.425781 17.378906 -70.65625 20.265625 -71.4375 C 23.148438 -72.21875 26.234375 -72.609375 29.515625 -72.609375 C 34.785156 -72.609375 38.664062 -71.910156 41.15625 -70.515625 C 43.65625 -69.128906 44.90625 -66.757812 44.90625 -63.40625 C 44.90625 -61.988281 44.601562 -60.707031 44 -59.5625 C 43.394531 -58.425781 42.738281 -57.570312 42.03125 -57 C 40.675781 -57.351562 39.265625 -57.65625 37.796875 -57.90625 C 36.335938 -58.15625 34.644531 -58.28125 32.71875 -58.28125 C 29.65625 -58.28125 27.265625 -57.765625 25.546875 -56.734375 C 23.835938 -55.703125 22.984375 -53.898438 22.984375 -51.328125 L 22.984375 -47.90625 L 40.53125 -47.90625 C 40.957031 -47.125 41.363281 -46.144531 41.75 -44.96875 C 42.144531 -43.789062 42.34375 -42.488281 42.34375 -41.0625 C 42.34375 -38.570312 41.789062 -36.769531 40.6875 -35.65625 C 39.582031 -34.550781 38.101562 -34 36.25 -34 L 23.953125 -34 L 23.953125 -0.109375 C 23.242188 0.109375 22.117188 0.320312 20.578125 0.53125 C 19.046875 0.75 17.460938 0.859375 15.828125 0.859375 C 14.253906 0.859375 12.84375 0.75 11.59375 0.53125 C 10.351562 0.320312 9.304688 -0.101562 8.453125 -0.75 C 7.597656 -1.394531 6.9375 -2.269531 6.46875 -3.375 C 6.007812 -4.476562 5.78125 -5.921875 5.78125 -7.703125 Z M 5.78125 -51.96875 "/></g></g><g style="fill:rgb(100%,100%,100%);fill-opacity:1;"><g transform="translate(64.244919, 214.235232)"><path style="stroke:none;" d="M 59.34375 -25.984375 C 59.34375 -21.566406 58.664062 -17.628906 57.3125 -14.171875 C 55.957031 -10.710938 54.050781 -7.804688 51.59375 -5.453125 C 49.132812 -3.097656 46.191406 -1.3125 42.765625 -0.09375 C 39.347656 1.113281 35.535156 1.71875 31.328125 1.71875 C 27.117188 1.71875 23.300781 1.078125 19.875 -0.203125 C 16.457031 -1.492188 13.519531 -3.332031 11.0625 -5.71875 C 8.601562 -8.101562 6.695312 -11.003906 5.34375 -14.421875 C 3.988281 -17.847656 3.3125 -21.703125 3.3125 -25.984375 C 3.3125 -30.191406 3.988281 -34.003906 5.34375 -37.421875 C 6.695312 -40.847656 8.601562 -43.753906 11.0625 -46.140625 C 13.519531 -48.523438 16.457031 -50.359375 19.875 -51.640625 C 23.300781 -52.929688 27.117188 -53.578125 31.328125 -53.578125 C 35.535156 -53.578125 39.347656 -52.914062 42.765625 -51.59375 C 46.191406 -50.28125 49.132812 -48.425781 51.59375 -46.03125 C 54.050781 -43.644531 55.957031 -40.738281 57.3125 -37.3125 C 58.664062 -33.894531 59.34375 -30.117188 59.34375 -25.984375 Z M 21.921875 -25.984375 C 21.921875 -21.640625 22.757812 -18.304688 24.4375 -15.984375 C 26.113281 -13.671875 28.445312 -12.515625 31.4375 -12.515625 C 34.4375 -12.515625 36.738281 -13.6875 38.34375 -16.03125 C 39.945312 -18.382812 40.75 -21.703125 40.75 -25.984375 C 40.75 -30.265625 39.925781 -33.5625 38.28125 -35.875 C 36.644531 -38.195312 34.328125 -39.359375 31.328125 -39.359375 C 28.335938 -39.359375 26.019531 -38.195312 24.375 -35.875 C 22.738281 -33.5625 21.921875 -30.265625 21.921875 -25.984375 Z M 21.921875 -25.984375 "/></g></g><g style="fill:rgb(100%,100%,100%);fill-opacity:1;"><g transform="translate(126.912255, 214.235232)"><path style="stroke:none;" d="M 2.671875 -43.53125 C 3.242188 -46.238281 4.367188 -48.445312 6.046875 -50.15625 C 7.722656 -51.863281 9.804688 -52.71875 12.296875 -52.71875 C 14.648438 -52.71875 16.46875 -52.144531 17.75 -51 C 19.03125 -49.863281 20.457031 -48.265625 22.03125 -46.203125 L 28.875 -37.21875 L 40.3125 -52.71875 C 44.238281 -52.71875 47.34375 -52.019531 49.625 -50.625 C 51.90625 -49.238281 53.046875 -47.367188 53.046875 -45.015625 C 53.046875 -44.085938 52.921875 -43.25 52.671875 -42.5 C 52.421875 -41.757812 52.046875 -40.992188 51.546875 -40.203125 C 51.046875 -39.421875 50.398438 -38.53125 49.609375 -37.53125 C 48.828125 -36.53125 47.90625 -35.351562 46.84375 -34 L 39.78125 -26.09375 L 53.796875 -7.59375 C 53.429688 -4.882812 52.359375 -2.742188 50.578125 -1.171875 C 48.796875 0.390625 46.660156 1.171875 44.171875 1.171875 C 41.453125 1.097656 39.289062 0.316406 37.6875 -1.171875 C 36.09375 -2.671875 34.546875 -4.488281 33.046875 -6.625 L 27.265625 -14.859375 L 16.359375 0.859375 C 16.003906 0.859375 15.613281 0.875 15.1875 0.90625 C 14.757812 0.945312 14.398438 0.96875 14.109375 0.96875 C 10.472656 0.96875 7.710938 0.21875 5.828125 -1.28125 C 3.941406 -2.78125 3 -4.632812 3 -6.84375 C 3 -8.550781 3.40625 -10.0625 4.21875 -11.375 C 5.039062 -12.695312 6.453125 -14.503906 8.453125 -16.796875 L 17 -26.734375 Z M 2.671875 -43.53125 "/></g></g><g style="fill:rgb(100%,100%,100%);fill-opacity:1;"><g transform="translate(182.842312, 214.235232)"><path style="stroke:none;" d="M 29.40625 -53.578125 C 33.6875 -53.578125 37.660156 -53.023438 41.328125 -51.921875 C 45.003906 -50.816406 48.160156 -49.125 50.796875 -46.84375 C 53.429688 -44.5625 55.5 -41.691406 57 -38.234375 C 58.5 -34.773438 59.25 -30.65625 59.25 -25.875 C 59.25 -21.3125 58.601562 -17.316406 57.3125 -13.890625 C 56.03125 -10.472656 54.210938 -7.601562 51.859375 -5.28125 C 49.503906 -2.96875 46.671875 -1.238281 43.359375 -0.09375 C 40.046875 1.039062 36.359375 1.609375 32.296875 1.609375 C 29.234375 1.609375 26.378906 1.144531 23.734375 0.21875 L 23.734375 17.96875 C 23.023438 18.175781 21.882812 18.40625 20.3125 18.65625 C 18.75 18.90625 17.144531 19.03125 15.5 19.03125 C 13.9375 19.03125 12.53125 18.921875 11.28125 18.703125 C 10.03125 18.492188 8.976562 18.066406 8.125 17.421875 C 7.269531 16.785156 6.628906 15.914062 6.203125 14.8125 C 5.773438 13.707031 5.5625 12.265625 5.5625 10.484375 L 5.5625 -40.84375 C 5.5625 -42.769531 5.96875 -44.335938 6.78125 -45.546875 C 7.601562 -46.765625 8.726562 -47.875 10.15625 -48.875 C 12.363281 -50.300781 15.109375 -51.441406 18.390625 -52.296875 C 21.671875 -53.148438 25.34375 -53.578125 29.40625 -53.578125 Z M 29.625 -12.71875 C 36.96875 -12.71875 40.640625 -17.101562 40.640625 -25.875 C 40.640625 -30.4375 39.726562 -33.820312 37.90625 -36.03125 C 36.09375 -38.25 33.472656 -39.359375 30.046875 -39.359375 C 28.691406 -39.359375 27.476562 -39.195312 26.40625 -38.875 C 25.34375 -38.550781 24.421875 -38.175781 23.640625 -37.75 L 23.640625 -14.21875 C 24.492188 -13.789062 25.414062 -13.429688 26.40625 -13.140625 C 27.40625 -12.859375 28.476562 -12.71875 29.625 -12.71875 Z M 29.625 -12.71875 "/></g></g><g style="fill:rgb(100%,100%,100%);fill-opacity:1;"><g transform="translate(245.402711, 214.235232)"><path style="stroke:none;" d="M 33.046875 1.71875 C 28.835938 1.71875 24.929688 1.128906 21.328125 -0.046875 C 17.734375 -1.222656 14.597656 -2.988281 11.921875 -5.34375 C 9.242188 -7.695312 7.140625 -10.65625 5.609375 -14.21875 C 4.078125 -17.78125 3.3125 -21.953125 3.3125 -26.734375 C 3.3125 -31.441406 4.078125 -35.488281 5.609375 -38.875 C 7.140625 -42.257812 9.15625 -45.035156 11.65625 -47.203125 C 14.15625 -49.378906 17.003906 -50.984375 20.203125 -52.015625 C 23.410156 -53.054688 26.691406 -53.578125 30.046875 -53.578125 C 33.828125 -53.578125 37.265625 -53.003906 40.359375 -51.859375 C 43.460938 -50.722656 46.132812 -49.15625 48.375 -47.15625 C 50.625 -45.164062 52.375 -42.78125 53.625 -40 C 54.875 -37.21875 55.5 -34.1875 55.5 -30.90625 C 55.5 -28.476562 54.820312 -26.625 53.46875 -25.34375 C 52.113281 -24.0625 50.222656 -23.242188 47.796875 -22.890625 L 21.390625 -18.921875 C 22.171875 -16.578125 23.769531 -14.816406 26.1875 -13.640625 C 28.613281 -12.460938 31.398438 -11.875 34.546875 -11.875 C 37.460938 -11.875 40.222656 -12.242188 42.828125 -12.984375 C 45.429688 -13.734375 47.550781 -14.609375 49.1875 -15.609375 C 50.332031 -14.898438 51.296875 -13.898438 52.078125 -12.609375 C 52.859375 -11.328125 53.25 -9.976562 53.25 -8.5625 C 53.25 -5.351562 51.753906 -2.960938 48.765625 -1.390625 C 46.484375 -0.179688 43.914062 0.632812 41.0625 1.0625 C 38.207031 1.5 35.535156 1.71875 33.046875 1.71875 Z M 30.046875 -40.3125 C 28.335938 -40.3125 26.859375 -40.023438 25.609375 -39.453125 C 24.359375 -38.890625 23.34375 -38.160156 22.5625 -37.265625 C 21.78125 -36.378906 21.191406 -35.378906 20.796875 -34.265625 C 20.410156 -33.160156 20.179688 -32.039062 20.109375 -30.90625 L 38.390625 -33.90625 C 38.171875 -35.320312 37.382812 -36.742188 36.03125 -38.171875 C 34.675781 -39.597656 32.679688 -40.3125 30.046875 -40.3125 Z M 30.046875 -40.3125 "/></g></g><g style="fill:rgb(100%,100%,100%);fill-opacity:1;"><g transform="translate(304.113257, 214.235232)"><path style="stroke:none;" d="M 49.40625 -15.5 C 49.40625 -10.082031 47.375 -5.84375 43.3125 -2.78125 C 39.25 0.28125 33.257812 1.8125 25.34375 1.8125 C 22.351562 1.8125 19.570312 1.597656 17 1.171875 C 14.4375 0.742188 12.242188 0.0859375 10.421875 -0.796875 C 8.609375 -1.691406 7.179688 -2.816406 6.140625 -4.171875 C 5.109375 -5.523438 4.59375 -7.128906 4.59375 -8.984375 C 4.59375 -10.691406 4.945312 -12.132812 5.65625 -13.3125 C 6.375 -14.488281 7.234375 -15.46875 8.234375 -16.25 C 10.296875 -15.113281 12.664062 -14.097656 15.34375 -13.203125 C 18.019531 -12.316406 21.101562 -11.875 24.59375 -11.875 C 26.800781 -11.875 28.492188 -12.191406 29.671875 -12.828125 C 30.847656 -13.472656 31.4375 -14.332031 31.4375 -15.40625 C 31.4375 -16.394531 31.007812 -17.175781 30.15625 -17.75 C 29.300781 -18.320312 27.875 -18.785156 25.875 -19.140625 L 22.671875 -19.78125 C 16.460938 -20.988281 11.84375 -22.894531 8.8125 -25.5 C 5.789062 -28.101562 4.28125 -31.828125 4.28125 -36.671875 C 4.28125 -39.316406 4.847656 -41.707031 5.984375 -43.84375 C 7.128906 -45.976562 8.734375 -47.757812 10.796875 -49.1875 C 12.867188 -50.613281 15.347656 -51.71875 18.234375 -52.5 C 21.117188 -53.289062 24.304688 -53.6875 27.796875 -53.6875 C 30.441406 -53.6875 32.921875 -53.488281 35.234375 -53.09375 C 37.554688 -52.695312 39.570312 -52.109375 41.28125 -51.328125 C 42.988281 -50.546875 44.34375 -49.53125 45.34375 -48.28125 C 46.34375 -47.03125 46.84375 -45.550781 46.84375 -43.84375 C 46.84375 -42.207031 46.535156 -40.800781 45.921875 -39.625 C 45.316406 -38.445312 44.550781 -37.460938 43.625 -36.671875 C 43.0625 -37.035156 42.207031 -37.410156 41.0625 -37.796875 C 39.925781 -38.191406 38.679688 -38.550781 37.328125 -38.875 C 35.972656 -39.195312 34.597656 -39.460938 33.203125 -39.671875 C 31.816406 -39.890625 30.550781 -40 29.40625 -40 C 27.050781 -40 25.234375 -39.726562 23.953125 -39.1875 C 22.671875 -38.65625 22.03125 -37.816406 22.03125 -36.671875 C 22.03125 -35.890625 22.382812 -35.25 23.09375 -34.75 C 23.8125 -34.25 25.164062 -33.785156 27.15625 -33.359375 L 30.484375 -32.609375 C 37.328125 -31.046875 42.191406 -28.890625 45.078125 -26.140625 C 47.960938 -23.398438 49.40625 -19.851562 49.40625 -15.5 Z M 49.40625 -15.5 "/></g></g></g></svg>