<svg xmlns="http://www.w3.org/2000/svg" width="16.363" height="16.363" viewBox="0 0 16.363 16.363">
  <g id="Icon_feather-eye-off" data-name="Icon feather-eye-off" transform="translate(-0.793 -0.793)">
    <path id="Path_862" data-name="Path 862" d="M13.011,15.472a6.842,6.842,0,0,1-4.036,1.4c-4.756,0-7.474-5.436-7.474-5.436A12.537,12.537,0,0,1,4.938,7.4M7.547,6.163A6.2,6.2,0,0,1,8.974,6c4.756,0,7.474,5.436,7.474,5.436A12.571,12.571,0,0,1,14.981,13.6m-4.566-.727A2.038,2.038,0,1,1,7.534,10" transform="translate(0 -2.462)" fill="none" stroke="#735ff2" stroke-linecap="round" stroke-linejoin="round" stroke-width="1"/>
    <path id="Path_863" data-name="Path 863" d="M1.5,1.5,16.449,16.449" fill="none" stroke="#735ff2" stroke-linecap="round" stroke-linejoin="round" stroke-width="1"/>
  </g>
</svg>
