<svg xmlns="http://www.w3.org/2000/svg" xmlns:xlink="http://www.w3.org/1999/xlink" data-name="Layer 1" viewBox="0 0 1920 1080"><defs><linearGradient id="a" x1="754.03" x2="1198.43" y1="446.9" y2="446.9" gradientUnits="userSpaceOnUse"><stop offset="0" stop-color="#a0e6f2"/><stop offset="1" stop-color="#69a8c9"/></linearGradient><linearGradient id="b" x1="436.55" x2="873.59" y1="604.79" y2="604.79" xlink:href="#a"/><linearGradient id="c" x1="1030.6" x2="1441.53" y1="723.74" y2="723.74" xlink:href="#a"/></defs><path fill="#f3c4af" d="M1311.85,331.4h0a11.28,11.28,0,0,1,11.28,11.28V361a7.13,7.13,0,0,1-7.13,7.13h-8.3a7.13,7.13,0,0,1-7.13-7.13V342.68A11.28,11.28,0,0,1,1311.85,331.4Z" transform="rotate(23.67 1311.654 349.677)"/><rect width="28.06" height="24.23" x="1297.68" y="330.89" fill="#f3c4af" rx="6.65" transform="rotate(23.67 1311.506 342.908)"/><path fill="#e07b4f" d="M1150.8,204.63h70.49a44.24,44.24,0,0,1,44.24,44.24v50.41a0,0,0,0,1,0,0h-159a0,0,0,0,1,0,0V248.87A44.24,44.24,0,0,1,1150.8,204.63Z" transform="rotate(-14.25 1186.038 251.97)"/><path fill="#e07b4f" d="M1150.8,204.63h70.49a44.24,44.24,0,0,1,44.24,44.24v50.41a0,0,0,0,1,0,0h-159a0,0,0,0,1,0,0V248.87A44.24,44.24,0,0,1,1150.8,204.63Z" transform="rotate(-14.25 1186.038 251.97)"/><circle cx="1193.96" cy="283.12" r="79.48" fill="#e07b4f"/><circle cx="1263.72" cy="281.05" r="14.26" fill="#f3c4af"/><circle cx="1131.34" cy="314.67" r="14.26" fill="#f3c4af"/><path fill="#f3c4af" d="M1198.53,214.39h0A68.48,68.48,0,0,1,1267,282.87v107.9a0,0,0,0,1,0,0h-137a0,0,0,0,1,0,0V282.87A68.48,68.48,0,0,1,1198.53,214.39Z" transform="rotate(-14.25 1198.523 302.565)"/><rect width="136.95" height="45.83" x="1151.76" y="365.14" fill="#438faa" transform="rotate(-14.25 1220.218 388.03)"/><rect width="16.67" height="45.83" x="1256.28" y="353.87" fill="#3f3f3f" transform="rotate(-14.25 1264.603 376.8)"/><rect width="16.67" height="45.83" x="1223.9" y="362.09" fill="#3f3f3f" transform="rotate(-14.25 1232.213 385.02)"/><path fill="#3f3f3f" d="M1162.06,386.77h137a0,0,0,0,1,0,0V452.9a17.5,17.5,0,0,1-17.5,17.5H1179.56a17.5,17.5,0,0,1-17.5-17.5V386.77a0,0,0,0,1,0,0Z" transform="rotate(-14.25 1230.508 428.56)"/><ellipse cx="1170.52" cy="300.85" fill="#fff" rx="22.99" ry="26.56" transform="rotate(-14.25 1170.503 300.85)"/><ellipse cx="1177.24" cy="299.14" fill="#182844" rx="14.93" ry="17.25" transform="rotate(-14.25 1177.218 299.13)"/><ellipse cx="1182.81" cy="285.36" fill="#fff" rx="2.75" ry="3.9" transform="matrix(.58 -.81 .81 .58 261.12 1079.69)"/><ellipse cx="1229.87" cy="285.78" fill="#fff" rx="22.99" ry="26.56" transform="rotate(-14.25 1229.873 285.765)"/><ellipse cx="1223.14" cy="287.48" fill="#182844" rx="14.93" ry="17.25" transform="rotate(-14.25 1223.118 287.48)"/><ellipse cx="1228.71" cy="273.7" fill="#fff" rx="2.75" ry="3.9" transform="matrix(.58 -.81 .81 .58 289.72 1112.11)"/><path fill="#f4987f" d="M1207.64,320.65c3.66-.93,8.08-4.25,12.56-1.59s2.89,14.06-8.42,16.93-19.84-6.09-16.32-10.92S1203.21,321.78,1207.64,320.65Z"/><path fill="#e86275" d="M1203.05,336s4.23-10.42,18.37-7.34C1221.42,328.61,1216.68,338.81,1203.05,336Z"/><path fill="#f4987f" d="M1203.6 252.08a22.89 22.89 0 013.13-2.05 31.22 31.22 0 019-3.3 34.42 34.42 0 0111.51-.39 35.21 35.21 0 0111 3.33 33.45 33.45 0 015.31 3.28 30.16 30.16 0 012.58 2.2 22.89 22.89 0 012.51 2.77l-.13 1-5.67-.48-5.66-.58c-3.77-.41-7.52-.9-11.29-1.34s-7.51-1-11.26-1.58l-5.61-.87-5.61-1zM1139.2 285.72a24 24 0 01.88-3.64 31.14 31.14 0 011.21-3.17 33.21 33.21 0 013.1-5.41 34.85 34.85 0 018.12-8.18 35.35 35.35 0 0110.32-5.13 32.11 32.11 0 019.5-1.41 23.64 23.64 0 013.72.3l.6.83-4.46 3.54-4.52 3.44c-3 2.29-6.1 4.51-9.14 6.76s-6.16 4.41-9.28 6.57l-4.69 3.21-4.76 3.13z"/><path fill="#e07b4f" d="M1235.75,199.17h0c-1-.41-2.07-.78-3.12-1.11l-.13,0-1.39-.4-.49-.13-.74-.19h0a44,44,0,0,0-18.58-.47l-.19,0c-.84.16-1.67.34-2.51.55l-68.32,17.35c-.82.21-1.62.45-2.42.7l-.21.06a44,44,0,0,0-16.12,9.29h0c-.13.11-.25.24-.37.35l-.74.7-.61.6-.65.67-.62.67c-.2.21-.39.43-.58.65l-.62.71-.11.13h0a44.43,44.43,0,0,0-8.63,16.36h0c-.12.4-.2.8-.3,1.2-.23.89-.42,1.79-.59,2.69-.11.56-.22,1.11-.3,1.67l0,.13v0a43.94,43.94,0,0,0,.91,17.17l2.5,9.83,3.24-.83,2.74-.69,9-2.3c2-13,8.21-25.44,20.33-28.52a22.55,22.55,0,0,1,13.42.73,40.61,40.61,0,0,0,47.41-12,22.49,22.49,0,0,1,11.45-7c12.12-3.08,23,5,30.72,15.55l15.72-4-2.5-9.83A44.18,44.18,0,0,0,1235.75,199.17Z"/><ellipse cx="981.03" cy="639.34" fill="#e5f4f4" rx="185.76" ry="19.09"/><ellipse cx="1236.07" cy="929.21" fill="#e5f4f4" rx="247.38" ry="19.09"/><polygon fill="url(#a)" points="976.23 254.47 754.03 639.34 1198.43 639.34 976.23 254.47"/><ellipse cx="800.28" cy="926.66" fill="#e5f4f4" rx="130.94" ry="19.55"/><ellipse cx="655.07" cy="825.15" fill="#e5f4f4" rx="185.76" ry="19.09"/><circle cx="655.07" cy="604.79" r="218.52" fill="url(#b)"/><rect width="410.93" height="410.93" x="1030.6" y="518.28" fill="url(#c)"/><rect width="41.66" height="18.37" x="1307.57" y="452.09" fill="#3f3f3f" rx="9.18" transform="rotate(-62.95 1328.406 461.268)"/><path fill="#f3c4af" d="M1164,421.24h0a11.3,11.3,0,0,1,11.3,11.3v18.38a7.14,7.14,0,0,1-7.14,7.14h-8.31a7.14,7.14,0,0,1-7.14-7.14V432.53A11.3,11.3,0,0,1,1164,421.24Z" transform="rotate(132.56 1164.013 439.676)"/><rect width="28.1" height="24.27" x="1156.42" y="429.58" fill="#f3c4af" rx="6.66" transform="rotate(132.56 1170.477 441.747)"/><polyline fill="none" stroke="#3f3f3f" stroke-linecap="round" stroke-linejoin="round" stroke-width="18.46" points="1153.64 496.35 1159.63 507.94 1173.77 507.94"/><rect width="178.25" height="46.97" x="562.71" y="229.11" fill="#182844" rx="23.49"/><circle cx="651.83" cy="215.25" r="72.67" fill="#182844"/><circle cx="714.12" cy="229.11" r="13.04" fill="#ffd5a7"/><circle cx="589.24" cy="229.11" r="13.04" fill="#ffd5a7"/><path fill="#ffd5a7" d="M651.51,152.89h0a62.61,62.61,0,0,1,62.61,62.61v98.66a0,0,0,0,1,0,0H588.89a0,0,0,0,1,0,0V215.5A62.61,62.61,0,0,1,651.51,152.89Z"/><path fill="#ffd5a7" d="M558.6,130.79h7.61a6.54,6.54,0,0,1,6.54,6.54v16.82a10.34,10.34,0,0,1-10.34,10.34h0a10.34,10.34,0,0,1-10.34-10.34V137.33a6.54,6.54,0,0,1,6.54-6.54Z" transform="rotate(149.28 562.4 147.638)"/><path fill="#ffd5a7" d="M570.27,139h6.55a.93.93,0,0,1,.93.93v11.71a4.21,4.21,0,0,1-4.21,4.21h0a4.21,4.21,0,0,1-4.21-4.21V140a.93.93,0,0,1,.93-.93Z" transform="rotate(-173.96 573.541 147.48)"/><path fill="#ffd5a7" d="M741,130.79h0a10.34,10.34,0,0,1,10.34,10.34V158a6.54,6.54,0,0,1-6.54,6.54h-7.61a6.54,6.54,0,0,1-6.54-6.54V141.13A10.34,10.34,0,0,1,741,130.79Z" transform="rotate(30.72 740.968 147.644)"/><path fill="#ffd5a7" d="M729.81,139h0a4.21,4.21,0,0,1,4.21,4.21v11.71a.93.93,0,0,1-.93.93h-6.55a.93.93,0,0,1-.93-.93V143.24a4.21,4.21,0,0,1,4.21-4.21Z" transform="rotate(-6.04 730.365 147.54)"/><rect width="125.22" height="41.9" x="588.89" y="293.2" fill="#e49e8a"/><rect width="15.24" height="41.9" x="667.97" y="293.2" fill="#405182"/><rect width="15.24" height="41.9" x="619.64" y="293.2" fill="#405182"/><path fill="#405182" d="M588.89,314.15H714.12a0,0,0,0,1,0,0v60.47a16,16,0,0,1-16,16H604.9a16,16,0,0,1-16-16V314.15A0,0,0,0,1,588.89,314.15Z"/><path fill="#f8b558" d="M651.52,250.91c3.46,0,7.91-5.53,11.28-2.16s-.6,13.12-11.28,13.12-16.22-9.87-12-13.36S647.34,250.91,651.52,250.91Z"/><ellipse cx="623.51" cy="225.68" fill="#fff" rx="21.02" ry="24.29"/><ellipse cx="629.85" cy="225.68" fill="#2c254c" rx="13.65" ry="15.77"/><ellipse cx="637.9" cy="214.72" fill="#fff" rx="2.51" ry="3.56" transform="rotate(-40.07 637.88 214.715)"/><ellipse cx="679.5" cy="225.68" fill="#fff" rx="21.02" ry="24.29"/><ellipse cx="673.16" cy="225.68" fill="#2c254c" rx="13.65" ry="15.77"/><ellipse cx="681.2" cy="214.72" fill="#fff" rx="2.51" ry="3.56" transform="rotate(-40.07 681.186 214.724)"/><path fill="#182844" d="M686.68,151.47a72.67,72.67,0,0,0-106.87,54.2H580l9.27,10.41s2-9.73,18.88-13.42l.92-.21A132.27,132.27,0,0,0,686.68,151.47Z"/><path fill="#182844" d="M680.25,148.34c-.09,1.51-.15,3-.15,4.55A74.61,74.61,0,0,0,724.26,221c.15-1.9.25-3.81.25-5.75A72.72,72.72,0,0,0,680.25,148.34Z"/><path fill="#f8b558" d="M663.81 184.91a24.57 24.57 0 016.28-1.73 30.83 30.83 0 015.7-.28 31.92 31.92 0 0110.29 2.25 32.42 32.42 0 019 5.43 31.08 31.08 0 014 4.11 24.65 24.65 0 013.39 5.54l-.35.87-4.91-1.7-4.88-1.79c-3.25-1.21-6.47-2.49-9.7-3.73S676.19 191.3 673 190l-4.78-2-4.75-2.12zM599.17 200.23a24.43 24.43 0 013.38-5.56 31 31 0 014-4.11 31.84 31.84 0 019-5.41 32.23 32.23 0 0110.3-2.23 30.87 30.87 0 015.7.28 24.93 24.93 0 016.27 1.71l.34.88-4.74 2.12-4.79 2c-3.19 1.35-6.41 2.62-9.62 3.93s-6.45 2.52-9.7 3.73l-4.88 1.79-4.92 1.7z"/><line x1="727.09" x2="743.09" y1="398.44" y2="384.08" fill="none" stroke="#405182" stroke-linecap="round" stroke-linejoin="round" stroke-width="17"/><line x1="576.58" x2="560.57" y1="398.44" y2="384.08" fill="none" stroke="#405182" stroke-linecap="round" stroke-linejoin="round" stroke-width="17"/><path fill="#6b1f1f" d="M878.23,688.15c0,46.71-169.13,46.71-169.13,0a84.57,84.57,0,0,1,169.13,0Z"/><circle cx="750.01" cy="619.47" r="32.57" fill="#6b1f1f"/><circle cx="773.78" cy="579.17" r="32.57" fill="#6b1f1f"/><circle cx="800.17" cy="585.94" r="32.57" fill="#6b1f1f"/><circle cx="824.9" cy="624.56" r="32.57" fill="#6b1f1f"/><circle cx="787.22" cy="638.6" r="32.57" fill="#6b1f1f"/><circle cx="720.96" cy="704.29" r="15.17" fill="#b26c50"/><circle cx="857.07" cy="704.29" r="15.17" fill="#b26c50"/><path fill="#b26c50" d="M794.21,614.69h0a72.86,72.86,0,0,1,72.86,72.86V803.25a0,0,0,0,1,0,0H721.35a0,0,0,0,1,0,0V687.55A72.86,72.86,0,0,1,794.21,614.69Z"/><rect width="44.36" height="19.56" x="746.14" y="907.07" fill="#438faa" rx="9.78"/><rect width="44.36" height="19.56" x="808.92" y="907.07" fill="#438faa" rx="9.78"/><path fill="#b26c50" d="M893.88,810.25h8.85a7.61,7.61,0,0,1,7.61,7.61v19.57a12,12,0,0,1-12,12h0a12,12,0,0,1-12-12V817.86A7.61,7.61,0,0,1,893.88,810.25Z" transform="rotate(-30.72 898.3 829.853)"/><path fill="#b26c50" d="M881.52,820.26h7.62a1.09,1.09,0,0,1,1.09,1.09V835a4.9,4.9,0,0,1-4.9,4.9h0a4.9,4.9,0,0,1-4.9-4.9V821.35a1.09,1.09,0,0,1,1.09-1.09Z" transform="rotate(6.04 885.946 830.731)"/><rect width="145.71" height="48.76" x="721.35" y="778.87" fill="#3f3f3f"/><rect width="17.73" height="48.76" x="823.36" y="778.87" fill="#438faa"/><rect width="17.73" height="48.76" x="777.13" y="778.87" fill="#438faa"/><path fill="#438faa" d="M721.35,803.25H867.07a0,0,0,0,1,0,0v70.36a18.62,18.62,0,0,1-18.62,18.62H740a18.62,18.62,0,0,1-18.62-18.62V803.25A0,0,0,0,1,721.35,803.25Z"/><path fill="#6b1f1f" d="M714,675.06c-1.3,4.42-2,10.12,1.48,12.88,3,2.34,7.41.93,9.94-1.92s3.67-6.74,5-10.39c4.74-12.91,12.38-21.92,22.74-30.34,4.26-3.46,13.31-9.77,22.39-10.69,11.54-1.17,17.37,3.73,21,5.95a66.37,66.37,0,0,0,23,8.68.69.69,0,0,0,.56-1.21,19.91,19.91,0,0,1-6.69-9.73,1,1,0,0,1,1.61-1c5.29,5.09,18.91,17.21,32.26,24.06,8.27,4.25,19.25,10,27.72,13.81,1.24-9.49-2.46-19.13-8.17-26.55s-13.27-12.93-20.88-18c-14.69-9.88-30.48-18.89-47.72-21.17a67.39,67.39,0,0,0-50.09,14C733.91,634.68,717,656.52,714,675.06Z"/><ellipse cx="775.64" cy="700.3" fill="#fff" rx="24.46" ry="28.26"/><ellipse cx="783.02" cy="700.3" fill="#182844" rx="15.88" ry="18.35"/><ellipse cx="792.37" cy="687.54" fill="#fff" rx="2.93" ry="4.15" transform="rotate(-40.07 792.357 687.53)"/><ellipse cx="836.79" cy="700.3" fill="#fff" rx="24.46" ry="28.26"/><ellipse cx="829.41" cy="700.3" fill="#182844" rx="15.88" ry="18.35"/><ellipse cx="838.76" cy="687.54" fill="#fff" rx="2.93" ry="4.15" transform="rotate(-40.07 838.744 687.528)"/><path fill="#934b3e" d="M818.53 658.67a25.06 25.06 0 013.76-1.29 35.42 35.42 0 013.54-.73 35.87 35.87 0 016.64-.32 37.55 37.55 0 0122.47 8.94 33 33 0 016.7 7.72 24.5 24.5 0 011.86 3.51l-.4 1-5.72-2-5.68-2.08c-3.78-1.4-7.52-2.9-11.29-4.34s-7.48-3-11.2-4.57l-5.56-2.37-5.52-2.48zM792.41 659a23.72 23.72 0 01-1.74 3.57c-.63 1.09-1.31 2.07-2 3a34.84 34.84 0 01-4.47 4.91 36.7 36.7 0 01-10.31 6.63 37.55 37.55 0 01-11.9 3 36.18 36.18 0 01-6.64-.11 33.85 33.85 0 01-3.55-.61 24.39 24.39 0 01-3.8-1.17l-.44-1 5.45-2.64 5.49-2.54c3.66-1.69 7.37-3.28 11-4.92s7.42-3.16 11.15-4.68l5.61-2.26L792 658zM787.22 738.28a11.94 11.94 0 011.56-5.56 13.44 13.44 0 013.94-4.48 11.93 11.93 0 013-1.55 11.21 11.21 0 013.66-.63 13.19 13.19 0 016.88 1.92 24.17 24.17 0 014 3.11 7.15 7.15 0 002 1.55 4.12 4.12 0 003 0 12.85 12.85 0 004-2.61 8.28 8.28 0 01-3.13 8.21 8.84 8.84 0 01-3.32 1.53 9.35 9.35 0 01-3.81.18 12.23 12.23 0 01-3.43-1.07c-1.93-.93-3.19-1.8-4.14-2.24a7.45 7.45 0 00-2.34-.75 7.91 7.91 0 00-1.15-.13 9.8 9.8 0 00-1.54.1 28.49 28.49 0 00-4.06.95C790.8 737.24 789.18 737.77 787.22 738.28z"/><path fill="#9f5f53" d="M805.07,731.14h0a12,12,0,0,1,12,12v19.57a7.61,7.61,0,0,1-7.61,7.61h-8.85a7.61,7.61,0,0,1-7.61-7.61V743.17a12,12,0,0,1,12-12Z" transform="rotate(75.72 805.07 750.745)"/><path fill="#9f5f53" d="M796,731.62h0a4.9,4.9,0,0,1,4.9,4.9v13.62a1.09,1.09,0,0,1-1.09,1.09h-7.62a1.09,1.09,0,0,1-1.09-1.09V736.52a4.9,4.9,0,0,1,4.9-4.9Z" transform="rotate(38.96 795.982 741.298)"/></svg>