<svg xmlns="http://www.w3.org/2000/svg" data-name="Layer 1" viewBox="0 0 500 1080"><path fill="#e07b4f" d="M110.94,284.87H389.07a0,0,0,0,1,0,0V449.32a30.25,30.25,0,0,1-30.25,30.25H141.2a30.25,30.25,0,0,1-30.25-30.25V284.87A0,0,0,0,1,110.94,284.87Z"/><circle cx="250" cy="279.15" r="139.06" fill="#e07b4f"/><circle cx="140.98" cy="302.38" r="24.94" fill="#f3c4af"/><circle cx="359.02" cy="302.38" r="24.94" fill="#f3c4af"/><circle cx="250" cy="290.73" r="119.86" fill="#b26c50"/><line x1="299.23" x2="362.94" y1="443.64" y2="584.41" fill="none" stroke="#f3c4af" stroke-linecap="round" stroke-linejoin="round" stroke-width="42.53"/><line x1="200.77" x2="137.06" y1="443.64" y2="584.41" fill="none" stroke="#f3c4af" stroke-linecap="round" stroke-linejoin="round" stroke-width="42.53"/><path fill="#f3c4af" d="M369.86,290.73A119.86,119.86,0,0,0,250.62,170.87c-65.47-.34-119.67,52.89-120.47,118.36a119.89,119.89,0,0,0,92.56,118.22,5.14,5.14,0,0,1,3.93,5h0a5.24,5.24,0,0,1-4.83,5.18,53.14,53.14,0,0,0-48.3,52.91h0a53.13,53.13,0,0,0,53.13,53.13h46.72a53.13,53.13,0,0,0,53.13-53.13h0a53.14,53.14,0,0,0-48.3-52.91,5.24,5.24,0,0,1-4.83-5.18v0a5.16,5.16,0,0,1,4-5A119.89,119.89,0,0,0,369.86,290.73Z"/><rect width="72.95" height="32.16" x="155.66" y="908.1" fill="#8da5cc" rx="16.08"/><rect width="72.95" height="32.16" x="268" y="908.1" fill="#8da5cc" rx="16.08"/><path fill="#f3c4af" d="M385.89,608.92h14.55A12.51,12.51,0,0,1,413,621.43v32.19a19.78,19.78,0,0,1-19.78,19.78h0a19.78,19.78,0,0,1-19.78-19.78V621.43A12.51,12.51,0,0,1,385.89,608.92Z" transform="rotate(-30.72 393.17 641.16)"/><path fill="#f3c4af" d="M365.57,625.39h12.53a1.78,1.78,0,0,1,1.78,1.78v22.4a8.05,8.05,0,0,1-8.05,8.05h0a8.05,8.05,0,0,1-8.05-8.05v-22.4A1.78,1.78,0,0,1,365.57,625.39Z" transform="rotate(6.04 372.106 642.013)"/><path fill="#f3c4af" d="M106.83,608.92h0a19.78,19.78,0,0,1,19.78,19.78v32.19a12.51,12.51,0,0,1-12.51,12.51H99.55A12.51,12.51,0,0,1,87,660.89V628.7a19.78,19.78,0,0,1,19.78-19.78Z" transform="rotate(-149.28 106.831 641.159)"/><path fill="#f3c4af" d="M128.16,625.39h0a8.05,8.05,0,0,1,8.05,8.05v22.4a1.78,1.78,0,0,1-1.78,1.78H121.89a1.78,1.78,0,0,1-1.78-1.78v-22.4A8.05,8.05,0,0,1,128.16,625.39Z" transform="rotate(173.96 128.186 641.5)"/><path fill="#f7a389" d="M250.93,354.12c6.63,0,15.15-10.59,21.6-4.14s-1.15,25.11-21.6,25.11-31-18.89-23-25.57S242.93,354.12,250.93,354.12Z"/><ellipse cx="197.34" cy="305.85" fill="#fff" rx="40.23" ry="46.48"/><ellipse cx="209.48" cy="305.85" fill="#300c1f" rx="26.12" ry="30.18"/><ellipse cx="224.87" cy="284.87" fill="#fff" rx="4.81" ry="6.82" transform="rotate(-40.07 224.864 284.866)"/><ellipse cx="304.48" cy="305.85" fill="#fff" rx="40.23" ry="46.48"/><ellipse cx="292.34" cy="305.85" fill="#300c1f" rx="26.12" ry="30.18"/><ellipse cx="307.73" cy="284.87" fill="#fff" rx="4.81" ry="6.82" transform="rotate(-40.07 307.711 284.863)"/><path fill="#f7a389" d="M274.45 237.4a38.06 38.06 0 016.2-2.13 53.71 53.71 0 015.82-1.19c.94-.14 1.87-.23 2.8-.34s1.83-.12 2.75-.19a50.47 50.47 0 015.36 0 60.27 60.27 0 0119.68 4.31 61.44 61.44 0 0117.28 10.38 47.91 47.91 0 013.89 3.69c1.27 1.29 2.49 2.7 3.69 4.18a55.3 55.3 0 013.43 4.84 38.46 38.46 0 013.06 5.77l-.66 1.67c-3.16-1-6.27-2.17-9.41-3.25L329 261.69c-6.21-2.3-12.37-4.76-18.56-7.13S298.14 249.62 292 247l-9.15-3.9c-3-1.36-6.07-2.66-9.08-4.07zM151.2 267.85a38 38 0 012.87-5.89 55.83 55.83 0 013.27-4.95c.58-.77 1.17-1.48 1.75-2.23s1.21-1.38 1.81-2.07a46.78 46.78 0 013.78-3.8 60.43 60.43 0 0117-10.87 61 61 0 0119.57-4.87 47.26 47.26 0 015.35-.15c1.81 0 3.68.15 5.57.35a52.81 52.81 0 015.84 1 38.77 38.77 0 016.25 1.92l.71 1.65c-3 1.5-6 2.9-9 4.35l-9 4.17c-6 2.77-12.12 5.39-18.17 8.09s-12.2 5.2-18.34 7.7L161.21 266c-3.1 1.18-6.18 2.41-9.3 3.54z"/><path fill="#405182" d="M321.67,529.48a21.37,21.37,0,0,1-4.36-29.06,52.82,52.82,0,0,0,9.18-29.84h0a53.13,53.13,0,0,0-53.13-53.13H226.64a53.13,53.13,0,0,0-53.13,53.13h0a52.87,52.87,0,0,0,9.18,29.85,21.36,21.36,0,0,1-4.36,29.05A67.94,67.94,0,0,0,152,583.25h0a68.08,68.08,0,0,0,68.08,68.08h59.86A68.08,68.08,0,0,0,348,583.25h0A67.94,67.94,0,0,0,321.67,529.48Z"/><path fill="#8da5cc" d="M287,583.38c0,26.84-35,201.38-54.58,297-2.88,14.05-22.95,14.05-25.83,0C187,784.76,152,610.22,152,583.38a67.5,67.5,0,1,1,135,0Z"/><path fill="#8da5cc" d="M348,583.38c0,26.84-35,201.38-54.59,297-2.88,14.05-22.95,14.05-25.83,0C248,784.76,213,610.22,213,583.38a67.5,67.5,0,0,1,135,0Z"/><path fill="#8da5cc" d="M178.33,529.48A67.94,67.94,0,0,0,152,583.25h0a68.08,68.08,0,0,0,68.08,68.08h59.86A68.08,68.08,0,0,0,348,583.25h0a67.94,67.94,0,0,0-26.34-53.77,21,21,0,0,1-8-13.6H186.29A21,21,0,0,1,178.33,529.48Z"/><path fill="#e07b4f" d="M316.06,156.75a139.05,139.05,0,0,0-204.5,103.71h.32l17.74,19.92s3.86-18.62,36.12-25.67c.62-.14,1.21-.27,1.77-.41A253,253,0,0,0,316.06,156.75Z"/><path fill="#e07b4f" d="M295.73,158.8c-.18,2.87-.29,5.77-.29,8.69A142.77,142.77,0,0,0,380,297.83c.28-3.64.47-7.3.47-11A139.08,139.08,0,0,0,295.73,158.8Z"/></svg>