<svg xmlns="http://www.w3.org/2000/svg" enable-background="new 0 0 47.5 47.5" viewBox="0 0 47.5 47.5"><defs><clipPath id="a" clipPathUnits="userSpaceOnUse"><path d="M 0,38 38,38 38,0 0,0 0,38 Z"/></clipPath></defs><g clip-path="url(#a)" transform="matrix(1.25 0 0 -1.25 0 47.5)"><path fill="#553788" d="m 0,0 c 0,-2.209 -0.791,-4 -3,-4 l -7,0 c -4,0 -4,14 0,14 l 7,0 C -0.791,10 0,8.209 0,6 L 0,0 Z" transform="translate(16 6)"/><path fill="#9266cc" d="m 0,0 -1,0 0,10 1,0 c 0.553,0 1,0.447 1,1 0,0.553 -0.447,1 -1,1 l -24,0 c -4,0 -4,-14 0,-14 l 24,0 c 0.553,0 1,0.447 1,1 0,0.553 -0.447,1 -1,1" transform="translate(35 4)"/><path fill="#ccd6dd" d="m 0,0 -23.172,0 c -2,0 -2,10 0,10 L 0,10 C 1.104,10 1.104,0 0,0" transform="translate(35.172 4)"/><path fill="#99aab5" d="M 0,0 23.35,0 C 23.215,1.175 22.989,2 22.672,2 L -0.5,2 C -2.151,2 -2.438,-4.808 -1.363,-7.187 -1.755,-4.229 -1.301,0 0,0" transform="translate(12.5 12)"/><path fill="#269" d="m 0,0 c 0,-2.209 -1.791,-4 -4,-4 l -4,0 c -4,0 -4,11 0,11 l 4,0 C -1.791,7 0,5.209 0,3 L 0,0 Z" transform="translate(13 29)"/><path fill="#55acee" d="m 0,0 -1,0 0,7 1,0 C 0.553,7 1,7.447 1,8 1,8.553 0.553,9 0,9 l -24,0 c -4,0 -4,-11 0,-11 l 24,0 c 0.553,0 1,0.447 1,1 0,0.553 -0.447,1 -1,1" transform="translate(32 27)"/><path fill="#ccd6dd" d="m 0,0 -23.172,0 c -2,0 -2,7 0,7 L 0,7 C 1.104,7 1.104,0 0,0" transform="translate(32.172 27)"/><path fill="#99aab5" d="M 0,0 23.925,0 C 23.811,1.125 23.561,2 23.172,2 L 0,2 C -1.193,2 -1.669,-0.489 -1.438,-2.5 -1.282,-1.142 -0.807,0 0,0" transform="translate(9 32)"/><path fill="#f4900c" d="m 0,0 c 0,-2.209 -1.791,-4 -4,-4 l -10,0 c -4,0 -4,9 0,9 L -4,5 C -1.791,5 0,3.209 0,1 L 0,0 Z" transform="translate(21 20)"/><path fill="#ffac33" d="m 0,0 -1,0 0,5 1,0 C 0.553,5 1,5.447 1,6 1,6.553 0.553,7 0,7 l -20,0 c -4,0 -4,-9 0,-9 l 20,0 c 0.553,0 1,0.447 1,1 0,0.553 -0.447,1 -1,1" transform="translate(36 18)"/><path fill="#ccd6dd" d="m 0,0 -19.172,0 c -2,0 -2,5 0,5 L 0,5 C 1.104,5 1.104,0 0,0" transform="translate(36.172 18)"/><path fill="#99aab5" d="M 0,0 19.984,0 C 19.92,1.062 19.65,2 19.172,2 L 0,2 C -1.274,2 -1.733,-0.027 -1.383,-1.5 -1.185,-0.661 -0.726,0 0,0" transform="translate(17 21)"/></g></svg>