<svg xmlns="http://www.w3.org/2000/svg" width="13.193" height="15.078" viewBox="0 0 13.193 15.078">
  <path id="Icon_awesome-calendar-alt" data-name="Icon awesome-calendar-alt" d="M0,13.664a1.414,1.414,0,0,0,1.414,1.414H11.779a1.414,1.414,0,0,0,1.414-1.414V5.654H0ZM9.424,7.892a.354.354,0,0,1,.353-.353h1.178a.354.354,0,0,1,.353.353V9.07a.354.354,0,0,1-.353.353H9.777a.354.354,0,0,1-.353-.353Zm0,3.769a.354.354,0,0,1,.353-.353h1.178a.354.354,0,0,1,.353.353V12.84a.354.354,0,0,1-.353.353H9.777a.354.354,0,0,1-.353-.353ZM5.654,7.892a.354.354,0,0,1,.353-.353H7.185a.354.354,0,0,1,.353.353V9.07a.354.354,0,0,1-.353.353H6.007a.354.354,0,0,1-.353-.353Zm0,3.769a.354.354,0,0,1,.353-.353H7.185a.354.354,0,0,1,.353.353V12.84a.354.354,0,0,1-.353.353H6.007a.354.354,0,0,1-.353-.353ZM1.885,7.892a.354.354,0,0,1,.353-.353H3.416a.354.354,0,0,1,.353.353V9.07a.354.354,0,0,1-.353.353H2.238a.354.354,0,0,1-.353-.353Zm0,3.769a.354.354,0,0,1,.353-.353H3.416a.354.354,0,0,1,.353.353V12.84a.354.354,0,0,1-.353.353H2.238a.354.354,0,0,1-.353-.353Zm9.895-9.777H10.366V.471A.473.473,0,0,0,9.895,0H8.952a.473.473,0,0,0-.471.471V1.885H4.712V.471A.473.473,0,0,0,4.241,0H3.3a.473.473,0,0,0-.471.471V1.885H1.414A1.414,1.414,0,0,0,0,3.3V4.712H13.193V3.3A1.414,1.414,0,0,0,11.779,1.885Z" fill="#735ff2"/>
</svg>
