<svg xmlns="http://www.w3.org/2000/svg" width="16.755" height="16.755" viewBox="0 0 16.755 16.755">
  <path id="Icon_material-call" data-name="Icon material-call" d="M7.87,11.751A14.1,14.1,0,0,0,14,17.885l2.048-2.048A.925.925,0,0,1,17,15.614a10.618,10.618,0,0,0,3.323.531.934.934,0,0,1,.931.931v3.249a.934.934,0,0,1-.931.931A15.823,15.823,0,0,1,4.5,5.431.934.934,0,0,1,5.431,4.5H8.689a.934.934,0,0,1,.931.931,10.574,10.574,0,0,0,.531,3.323.934.934,0,0,1-.233.949L7.87,11.751Z" transform="translate(-4.5 -4.5)" fill="#735ff2"/>
</svg>
