<svg xmlns="http://www.w3.org/2000/svg" xmlns:xlink="http://www.w3.org/1999/xlink" width="21" height="17" viewBox="0 0 21 17"><defs><clipPath id="a"><rect width="21" height="17" transform="translate(38 651)" fill="#735ff2" stroke="#707070" stroke-width="1"/></clipPath></defs><g transform="translate(-38 -651)" clip-path="url(#a)"><path d="M8.766,6.917A2.969,2.969,0,0,1,11.73,9.881a2.969,2.969,0,0,1-2.964,2.964A2.969,2.969,0,0,1,5.8,9.881,2.969,2.969,0,0,1,8.766,6.917Zm7.246-4.282a2.539,2.539,0,0,1,1.863.772,2.539,2.539,0,0,1,.772,1.863v9.222a2.636,2.636,0,0,1-2.635,2.635H1.52a2.539,2.539,0,0,1-1.863-.772,2.539,2.539,0,0,1-.772-1.863V5.27A2.539,2.539,0,0,1-.343,3.407,2.539,2.539,0,0,1,1.52,2.635H3.825l.525-1.4a1.911,1.911,0,0,1,.715-.87A1.833,1.833,0,0,1,6.131,0H11.4a1.833,1.833,0,0,1,1.065.365,1.911,1.911,0,0,1,.715.87l.525,1.4ZM8.766,14.492a4.441,4.441,0,0,0,3.258-1.353,4.441,4.441,0,0,0,1.353-3.258,4.441,4.441,0,0,0-1.353-3.258A4.441,4.441,0,0,0,8.766,5.27,4.441,4.441,0,0,0,5.508,6.623,4.441,4.441,0,0,0,4.154,9.881a4.441,4.441,0,0,0,1.353,3.258A4.441,4.441,0,0,0,8.766,14.492Z" transform="translate(39.865 651)" fill="#735ff2"/></g></svg>