<svg xmlns="http://www.w3.org/2000/svg" width="16.839" height="19.646" viewBox="0 0 16.839 19.646">
  <path id="Icon_metro-language" data-name="Icon metro-language" d="M11.94,14.022q-.011.033-.137-.005t-.345-.126l-.219-.1a6.569,6.569,0,0,1-.954-.537q-.077-.055-.449-.345T9.418,12.6a18.677,18.677,0,0,1-1.469,1.984A8.15,8.15,0,0,1,6.8,15.787a.869.869,0,0,1-.214.044.422.422,0,0,1-.2,0q.066-.044.9-1.009.23-.263.937-1.261a15.327,15.327,0,0,0,.861-1.294q.186-.329.559-1.08a8.545,8.545,0,0,0,.395-.85,9.009,9.009,0,0,0-1.206.362q-.088.022-.3.082l-.378.1a1.878,1.878,0,0,0-.186.055.186.186,0,0,0-.022.115.243.243,0,0,1-.011.1q-.055.11-.34.164a.884.884,0,0,1-.515,0,.462.462,0,0,1-.307-.23.558.558,0,0,1-.055-.252,2.119,2.119,0,0,1,.269-.055,3.274,3.274,0,0,0,.323-.066q.636-.175,1.151-.351,1.1-.384,1.118-.384a2.432,2.432,0,0,0,.471-.214,4.959,4.959,0,0,1,.482-.236q.1-.033.236-.088t.159-.06a.147.147,0,0,1,.066.005,1.247,1.247,0,0,1-.011.362,2.334,2.334,0,0,1-.137.3q-.137.274-.291.587t-.186.367a16.443,16.443,0,0,1-.844,1.436l.7.307q.132.066.817.351l.74.307q.044.011.115.28a.831.831,0,0,1,.049.334ZM9.692,8.694A.445.445,0,0,1,9.648,9a.994.994,0,0,1-.548.417,1.76,1.76,0,0,1-.658.132.907.907,0,0,1-.537-.285.824.824,0,0,1-.2-.449l.011-.033a.469.469,0,0,0,.214.055.953.953,0,0,0,.291,0q.11-.022.636-.175a3.13,3.13,0,0,1,.6-.153.216.216,0,0,1,.23.186Zm7.652,1.414.691,2.489-1.524-.46ZM5.2,18.878l7.608-2.543V5.021L5.2,7.575v11.3ZM18.8,15.4l1.118.34-1.984-7.2-1.1-.34-2.368,5.876,1.118.34.493-1.206,2.313.713ZM13.288,4.857,19.57,6.874V2.708Zm3.409,14.5,1.732.143-.592,1.754-.439-.724a8.127,8.127,0,0,1-3.026,1.184,5.254,5.254,0,0,1-1,.132h-.921a7.41,7.41,0,0,1-2.187-.428,7.28,7.28,0,0,1-2.012-.932.228.228,0,0,1-.088-.175.212.212,0,0,1,.055-.148.184.184,0,0,1,.143-.06.617.617,0,0,1,.2.082l.334.181q.181.1.225.121a9.713,9.713,0,0,0,1.749.674,6.388,6.388,0,0,0,1.727.269,9.355,9.355,0,0,0,1.831-.159,9.036,9.036,0,0,0,1.721-.554q.164-.077.334-.17t.373-.208q.2-.115.312-.181ZM21.609,7.531V19.36l-8.485-2.7q-.153.066-4.111,1.4T4.978,19.393a.2.2,0,0,1-.2-.143.084.084,0,0,0-.011-.033V7.4a.489.489,0,0,1,.044-.11.493.493,0,0,1,.219-.121Q6.2,6.786,6.666,6.622V2.412l6.117,2.171q.022,0,1.76-.6T18.008,2.79Q19.734,2.2,19.778,2.2q.219,0,.219.23V7.016Z" transform="translate(-4.77 -2.203)" fill="#7a7a7a"/>
</svg>
