<svg xmlns="http://www.w3.org/2000/svg" width="17.264" height="20.582" viewBox="0 0 17.264 20.582">
  <g id="Icon_ionic-ios-notifications-outline" data-name="Icon ionic-ios-notifications-outline" transform="translate(-6.775 -4.957)">
    <path id="Path_932" data-name="Path 932" d="M19.055,28.336a.7.7,0,0,0-.686.551,1.353,1.353,0,0,1-.27.589,1.021,1.021,0,0,1-.87.319,1.038,1.038,0,0,1-.87-.319,1.353,1.353,0,0,1-.27-.589.7.7,0,0,0-.686-.551h0a.7.7,0,0,0-.686.859,2.413,2.413,0,0,0,2.511,2,2.409,2.409,0,0,0,2.511-2,.707.707,0,0,0-.686-.859Z" transform="translate(-1.838 -5.659)"/>
    <path id="Path_933" data-name="Path 933" d="M23.822,19.933c-.832-1.1-2.468-1.739-2.468-6.648,0-5.039-2.225-7.064-4.3-7.55-.194-.049-.335-.113-.335-.319V5.259a1.325,1.325,0,0,0-1.3-1.329h-.032a1.325,1.325,0,0,0-1.3,1.329v.157c0,.2-.14.27-.335.319-2.079.491-4.3,2.511-4.3,7.55,0,4.909-1.636,5.547-2.468,6.648a1.072,1.072,0,0,0,.859,1.717H22.98A1.073,1.073,0,0,0,23.822,19.933Zm-2.106.313H9.121a.237.237,0,0,1-.178-.394,6.543,6.543,0,0,0,1.134-1.8,12.239,12.239,0,0,0,.772-4.764A8.283,8.283,0,0,1,11.978,8.6a3.465,3.465,0,0,1,2.09-1.491,1.893,1.893,0,0,0,1-.567.427.427,0,0,1,.643-.011,1.957,1.957,0,0,0,1.015.578A3.465,3.465,0,0,1,18.821,8.6a8.283,8.283,0,0,1,1.129,4.688,12.239,12.239,0,0,0,.772,4.764,6.618,6.618,0,0,0,1.161,1.831A.223.223,0,0,1,21.716,20.246Z" transform="translate(0 1.026)"/>
  </g>
</svg>
