<svg xmlns="http://www.w3.org/2000/svg" width="18.819" height="23.109" viewBox="0 0 18.819 23.109">
  <g id="Icon_ionic-ios-notifications" data-name="Icon ionic-ios-notifications" transform="translate(-5.99 -3.18)">
    <path id="Path_1150" data-name="Path 1150" d="M17.207,31.2a2.546,2.546,0,0,0,2.6-2.862H14.6A2.547,2.547,0,0,0,17.207,31.2Z" transform="translate(-1.819 -5.659)" fill="none" stroke="#7a7a7a" stroke-width="1.5"/>
    <path id="Path_1151" data-name="Path 1151" d="M23.819,19.933c-.832-1.1-2.468-1.739-2.468-6.648,0-5.039-2.225-7.064-4.3-7.55-.194-.049-.335-.113-.335-.319V5.259a1.318,1.318,0,1,0-2.636,0v.157c0,.2-.14.27-.335.319-2.079.491-4.3,2.511-4.3,7.55,0,4.909-1.636,5.547-2.468,6.648a1.072,1.072,0,0,0,.859,1.717H22.966A1.072,1.072,0,0,0,23.819,19.933Z" transform="translate(0 0)" fill="none" stroke="#7a7a7a" stroke-width="1.5"/>
  </g>
</svg>
