<svg xmlns="http://www.w3.org/2000/svg" width="18.29" height="18.29" viewBox="0 0 18.29 18.29">
  <g id="Icon_feather-settings" data-name="Icon feather-settings" transform="translate(-1 -1)">
    <path id="Path_1156" data-name="Path 1156" d="M18.215,15.858A2.358,2.358,0,1,1,15.858,13.5,2.358,2.358,0,0,1,18.215,15.858Z" transform="translate(-5.713 -5.713)" fill="none" stroke="#000" stroke-linecap="round" stroke-linejoin="round" stroke-width="1"/>
    <path id="Path_1157" data-name="Path 1157" d="M15.961,12.5a1.3,1.3,0,0,0,.259,1.43l.047.047A1.573,1.573,0,1,1,14.043,16.2L14,16.157a1.307,1.307,0,0,0-2.216.927v.134a1.572,1.572,0,0,1-3.144,0v-.071a1.3,1.3,0,0,0-.849-1.187,1.3,1.3,0,0,0-1.43.259l-.047.047a1.573,1.573,0,1,1-2.224-2.224L4.133,14a1.307,1.307,0,0,0-.927-2.216H3.072a1.572,1.572,0,0,1,0-3.144h.071a1.3,1.3,0,0,0,1.187-.849,1.3,1.3,0,0,0-.259-1.43L4.023,6.31A1.573,1.573,0,1,1,6.247,4.086l.047.047a1.3,1.3,0,0,0,1.43.259h.063a1.3,1.3,0,0,0,.786-1.187V3.072a1.572,1.572,0,0,1,3.144,0v.071a1.307,1.307,0,0,0,2.216.927l.047-.047A1.573,1.573,0,1,1,16.2,6.247l-.047.047a1.3,1.3,0,0,0-.259,1.43v.063a1.3,1.3,0,0,0,1.187.786h.134a1.572,1.572,0,0,1,0,3.144h-.071a1.3,1.3,0,0,0-1.187.786Z" fill="none" stroke="#000" stroke-linecap="round" stroke-linejoin="round" stroke-width="1"/>
  </g>
</svg>
