<svg xmlns="http://www.w3.org/2000/svg" width="19.67" height="19.67" viewBox="0 0 19.67 19.67">
  <g id="vuesax_linear_category" data-name="vuesax/linear/category" transform="translate(-108 -188)">
    <g id="category" transform="translate(108 188)">
      <path id="Vector" d="M2.459,6.557H4.1A2.173,2.173,0,0,0,6.557,4.1V2.459A2.173,2.173,0,0,0,4.1,0H2.459A2.173,2.173,0,0,0,0,2.459V4.1A2.173,2.173,0,0,0,2.459,6.557Z" transform="translate(1.639 1.639)" fill="none" stroke="#b5b5b5" stroke-linecap="round" stroke-linejoin="round" stroke-width="1.5"/>
      <path id="Vector-2" data-name="Vector" d="M2.459,6.557H4.1A2.173,2.173,0,0,0,6.557,4.1V2.459A2.173,2.173,0,0,0,4.1,0H2.459A2.173,2.173,0,0,0,0,2.459V4.1A2.173,2.173,0,0,0,2.459,6.557Z" transform="translate(11.474 1.639)" fill="none" stroke="#b5b5b5" stroke-linecap="round" stroke-linejoin="round" stroke-width="1.5"/>
      <path id="Vector-3" data-name="Vector" d="M2.459,6.557H4.1A2.173,2.173,0,0,0,6.557,4.1V2.459A2.173,2.173,0,0,0,4.1,0H2.459A2.173,2.173,0,0,0,0,2.459V4.1A2.173,2.173,0,0,0,2.459,6.557Z" transform="translate(11.474 11.474)" fill="none" stroke="#b5b5b5" stroke-linecap="round" stroke-linejoin="round" stroke-width="1.5"/>
      <path id="Vector-4" data-name="Vector" d="M2.459,6.557H4.1A2.173,2.173,0,0,0,6.557,4.1V2.459A2.173,2.173,0,0,0,4.1,0H2.459A2.173,2.173,0,0,0,0,2.459V4.1A2.173,2.173,0,0,0,2.459,6.557Z" transform="translate(1.639 11.474)" fill="none" stroke="#b5b5b5" stroke-linecap="round" stroke-linejoin="round" stroke-width="1.5"/>
      <path id="Vector-5" data-name="Vector" d="M0,0H19.67V19.67H0Z" fill="none" opacity="0"/>
    </g>
  </g>
</svg>
