<svg xmlns="http://www.w3.org/2000/svg" width="19.67" height="19.67" viewBox="0 0 19.67 19.67">
  <g id="vuesax_linear_sms" data-name="vuesax/linear/sms" transform="translate(-556 -250)">
    <g id="sms" transform="translate(556 250)">
      <path id="Vector" d="M12.294,13.933H4.1c-2.459,0-4.1-1.229-4.1-4.1V4.1C0,1.229,1.639,0,4.1,0h8.2c2.459,0,4.1,1.229,4.1,4.1V9.835C16.392,12.7,14.752,13.933,12.294,13.933Z" transform="translate(1.639 2.869)" fill="#735ff2" stroke="#fff" stroke-linecap="round" stroke-linejoin="round" stroke-width="1.5"/>
      <path id="Vector-2" data-name="Vector" d="M8.2,0,5.631,2.049a2.6,2.6,0,0,1-3.073,0L0,0" transform="translate(5.737 7.376)" fill="#735ff2" stroke="#fff" stroke-linecap="round" stroke-linejoin="round" stroke-width="1.5"/>
      <g id="Vector-3" data-name="Vector" fill="#735ff2" opacity="0">
        <path d="M 19.169921875 19.169921875 L 0.5000009536743164 19.169921875 L 0.5000009536743164 0.5000009536743164 L 19.169921875 0.5000009536743164 L 19.169921875 19.169921875 Z" stroke="none"/>
        <path d="M 1 1 L 1 18.669921875 L 18.669921875 18.669921875 L 18.669921875 1 L 1 1 M 0 0 L 19.669921875 0 L 19.669921875 19.669921875 L 0 19.669921875 L 0 0 Z" stroke="none" fill="#fff"/>
      </g>
    </g>
  </g>
</svg>
