<svg xmlns="http://www.w3.org/2000/svg" width="23.157" height="13.232" viewBox="0 0 23.157 13.232">
  <g id="Icon_ionic-ios-videocam" data-name="Icon ionic-ios-videocam" transform="translate(-2.25 -9)">
    <path id="Path_916" data-name="Path 916" d="M29.824,10.8a.883.883,0,0,0-.481.14l-4.471,2.822a.442.442,0,0,0-.207.372v3.928a.442.442,0,0,0,.207.372l4.471,2.822a.929.929,0,0,0,.481.14H30.9a.44.44,0,0,0,.445-.439V11.239A.443.443,0,0,0,30.9,10.8Z" transform="translate(-5.937 -0.477)" fill="#735ff2"/>
    <path id="Path_917" data-name="Path 917" d="M14.733,22.232H4.912A2.67,2.67,0,0,1,2.25,19.576V11.657A2.666,2.666,0,0,1,4.907,9h9.821a2.666,2.666,0,0,1,2.657,2.657V19.57A2.659,2.659,0,0,1,14.733,22.232Z" fill="#735ff2"/>
  </g>
</svg>
